<svg width="40" height="39" viewBox="0 0 40 39" fill="none" xmlns="http://www.w3.org/2000/svg">
<ellipse cx="20" cy="19.5574" rx="20" ry="19.1257" fill="white"/>
<path fill-rule="evenodd" clip-rule="evenodd" d="M21.0108 11.4016C21.9914 10.9426 22.8468 10.7914 24.1738 10.7915C27.5698 10.8049 30.0834 13.5438 30.0834 17.0327C30.0834 19.6957 28.5307 22.2681 25.6386 24.7555C24.1205 26.0611 22.1823 27.3532 20.7942 28.0406L20 28.4339L19.2058 28.0406C17.8177 27.3532 15.8795 26.0611 14.3615 24.7555C11.4694 22.2681 9.91669 19.6957 9.91669 17.0327C9.91669 13.5065 12.4068 10.7914 15.8334 10.7914C17.1128 10.7914 18.0121 10.9569 19.0117 11.4297C19.3597 11.5943 19.6867 11.7896 19.9908 12.015C20.3071 11.7762 20.6477 11.5715 21.0108 11.4016Z" fill="#FF4E63"/>
</svg>
