<svg width="18" height="18" viewBox="0 0 18 18" fill="none" xmlns="http://www.w3.org/2000/svg">
<path fill-rule="evenodd" clip-rule="evenodd" d="M8.99997 2.25C11.8995 2.25 14.25 4.60051 14.25 7.5C14.25 10.3995 11.8995 12.75 8.99997 12.75C6.10048 12.75 3.74997 10.3995 3.74997 7.5C3.74997 4.60051 6.10048 2.25 8.99997 2.25ZM9.74997 14.963V15.75H11.25V17.25H6.74996V15.75H8.24997V14.9628C6.53484 14.7921 4.94792 14.0394 3.72961 12.8361L4.78372 11.7689C5.8999 12.8714 7.39931 13.5 8.99997 13.5C12.3137 13.5 15 10.8137 15 7.5C15 5.92478 14.3913 4.4473 13.3198 3.33598L14.3996 2.29484C15.7381 3.683 16.5 5.53249 16.5 7.5C16.5 11.389 13.54 14.5867 9.74997 14.963ZM5.24997 7.5C5.24997 5.42893 6.92891 3.75 8.99997 3.75C11.071 3.75 12.75 5.42893 12.75 7.5C12.75 9.57107 11.071 11.25 8.99997 11.25C6.92891 11.25 5.24997 9.57107 5.24997 7.5Z" fill="#2351F4"/>
</svg>
