<svg width="18" height="18" viewBox="0 0 18 18" fill="none" xmlns="http://www.w3.org/2000/svg">
<path fill-rule="evenodd" clip-rule="evenodd" d="M16.5 14.25C16.5 15.0784 15.8284 15.75 15 15.75H3C2.17157 15.75 1.5 15.0784 1.5 14.25V8.84606L1.56064 8.70456L3.82677 3.41945C4.16477 2.73106 4.59108 2.30475 5.25 2.25H12.75L12.8481 2.25645C13.4128 2.33095 13.8263 2.74452 14.1894 3.45456L16.5 8.84606V14.25ZM3 9.75V14.25H15V9.75H12C12 10.5784 11.3284 11.25 10.5 11.25H7.5C6.67157 11.25 6 10.5784 6 9.75H3ZM3.3874 8.25H7.5V9.75H10.5V8.25H14.613L12.833 4.09297C12.749 3.92958 12.6715 3.81491 12.6088 3.74995L5.38194 3.74718C5.32402 3.8096 5.25249 3.91897 5.18936 4.04544L3.3874 8.25Z" fill="#2351F4"/>
</svg>
