<svg width="18" height="18" viewBox="0 0 18 18" fill="none" xmlns="http://www.w3.org/2000/svg">
<path fill-rule="evenodd" clip-rule="evenodd" d="M13.9921 15.6728L15.655 14.0099L15.0694 11.8822L15.3245 11.2729L17.25 10.1864V7.83484L15.33 6.7438L15.0791 6.1355L15.6721 4.00677L14.0081 2.34512L11.8802 2.93061L11.2722 2.67568L10.1856 0.75H7.83408L6.74304 2.67003L6.13489 2.92085L4.00649 2.32711L2.34503 3.98857L2.93061 6.11676L2.67568 6.72476L0.75 7.81136V10.1622L2.6683 11.2557L2.91939 11.8645L2.32648 13.9929L3.98857 15.655L6.11676 15.0694L6.72483 15.3243L7.81145 17.2492H10.1624L11.2551 15.3309L11.8637 15.0799L13.9921 15.6728ZM14.1395 10.2192L13.4856 11.7808L13.9772 13.5664L13.5508 13.9927L11.769 13.4964L10.2067 14.1407L9.2905 15.7492H8.68719L7.77855 14.1396L6.21866 13.4856L4.4321 13.9772L4.00652 13.5516L4.50289 11.7698L3.85861 10.2076L2.25 9.29067V8.68728L3.86032 7.77863L4.5144 6.21866L4.02281 4.4321L4.44751 4.00741L6.22932 4.50446L7.79216 3.85991L8.70698 2.25H9.30969L10.2183 3.86032L11.7783 4.5144L13.5652 4.02272L13.9919 4.44874L13.4956 6.23022L14.1401 7.79292L15.75 8.70774V9.31045L14.1395 10.2192ZM9 12C7.34315 12 6 10.6569 6 9C6 7.34315 7.34315 6 9 6C10.6569 6 12 7.34315 12 9C12 10.6569 10.6569 12 9 12ZM10.5 9C10.5 9.82843 9.82843 10.5 9 10.5C8.17157 10.5 7.5 9.82843 7.5 9C7.5 8.17157 8.17157 7.5 9 7.5C9.82843 7.5 10.5 8.17157 10.5 9Z" fill="#2351F4"/>
</svg>
